<svg xmlns="http://www.w3.org/2000/svg" xmlns:xlink="http://www.w3.org/1999/xlink" version="1.1" width="630.769273092053" height="856.9230836947286" style="enable-background:new 0 0 1400 980;" xml:space="preserve"><rect id="backgroundrect" width="100%" height="100%" x="0" y="0" fill="none" stroke="none"/>
<style type="text/css">
	.st0{fill:#FFFFFF;}
	.st1{fill:#2D4955;}
</style>


<g class="currentLayer" style=""><title>Layer 1</title>
	<g id="svg_2" class="" transform="">
		<path class="st1" d="M 563.263 258.761 h -67.3674 v -25.4499 c 0.499018 -0.499018 1.49705 -0.998035 1.99607 -1.99607 c 13.4735 -18.4636 19.9607 -40.4204 18.4636 -62.8762 c -1.49705 -23.9528 -11.4774 -46.4086 -28.444 -63.8742 c -16.9666 -16.9666 -39.9214 -27.446 -63.8742 -28.444 c -13.9725 -0.998035 -27.945 1.49705 -40.4204 6.48723 c -14.4715 -29.941 -44.9116 -49.9017 -78.8448 -49.9017 c -10.4794 0 -20.9587 1.99607 -30.4401 5.48919 c -19.4617 -21.4578 -46.9076 -33.4342 -75.8507 -33.4342 c -53.3949 0 -97.8074 41.4185 -102.299 93.8153 c -5.98821 -0.998035 -12.4754 -0.998035 -18.9627 -0.499018 c -37.4263 2.9941 -67.3674 33.9332 -70.3615 71.3595 c -1.49705 21.4578 5.98821 42.4165 20.4597 57.886 v 125.253 v 444.126 c 0 4.99017 3.49312 9.48133 8.4833 10.9784 c 73.8546 21.9568 150.204 32.9352 226.554 32.9352 c 76.3497 0 152.2 -10.9784 226.554 -32.9352 c 4.99017 -1.49705 8.4833 -5.98821 8.4833 -10.9784 v -101.8 l 107.289 -98.3064 c 6.48723 -5.48919 9.98035 -13.9725 9.98035 -22.4558 v -264.479 C 613.664 281.217 591.208 258.761 563.263 258.761 Z M 496.394 332.616 h 43.4145 v 222.063 l -43.4145 38.9234 V 332.616 Z M 29.8131 170.435 c 1.99607 -25.9489 22.9548 -47.4067 48.9037 -49.9017 c 1.49705 0 2.9941 0 4.99017 0 c 6.48723 0 12.9745 0.998035 18.9627 3.49312 c 3.49312 1.49705 7.98428 0.998035 10.9784 -1.49705 c 2.9941 -2.49509 4.99017 -5.98821 4.49116 -9.98035 c 0 -1.99607 0 -3.49312 0 -4.99017 c 0 -43.9135 35.9293 -79.8428 79.8428 -79.8428 c 24.9509 0 48.4047 11.4774 63.3752 31.4381 c 3.49312 4.49116 9.48133 5.98821 14.4715 3.49312 c 8.98231 -4.49116 18.4636 -6.98624 28.943 -6.98624 c 27.945 0 53.3949 18.9627 61.3792 45.9096 c 0.998035 3.49312 3.49312 5.98821 6.48723 7.48526 c 2.9941 1.49705 6.98624 0.998035 9.98035 -0.499018 c 11.9764 -6.48723 25.9489 -9.98035 39.9214 -8.98231 c 37.4263 1.99607 68.3654 32.9352 70.3615 70.3615 c 0.998035 15.4695 -2.9941 30.4401 -10.9784 43.4145 h -359.792 c -18.4636 0 -33.9332 14.9705 -33.9332 33.9332 v 105.293 c 0 10.4794 -8.4833 19.4617 -19.4617 19.4617 s -19.4617 -8.4833 -19.4617 -19.4617 v -129.745 c 0 -2.9941 -1.49705 -5.98821 -3.49312 -8.4833 C 34.8032 202.372 28.815 186.903 29.8131 170.435 Z M 50.2726 787.221 v -397.717 c 0.499018 0 0.499018 0.499018 0.998035 0.499018 c 0.998035 0.499018 1.99607 0.998035 2.9941 0.998035 c 0.499018 0 0.998035 0.499018 1.49705 0.499018 c 0.998035 0.499018 1.99607 0.499018 2.9941 0.998035 c 0.499018 0 0.998035 0.499018 1.49705 0.499018 c 0.998035 0 1.99607 0.499018 2.9941 0.499018 c 0.499018 0 0.998035 0 1.49705 0 c 1.49705 0 2.9941 0.499018 4.99017 0.499018 c 5.48919 0 10.4794 -0.998035 14.9705 -2.9941 c 0.499018 0 1.49705 -0.499018 1.99607 -0.499018 c 1.99607 -0.998035 3.99214 -1.99607 5.48919 -2.9941 c 1.49705 -0.998035 3.49312 -2.49509 4.99017 -3.49312 c 3.49312 -2.9941 6.48723 -6.48723 8.98231 -9.98035 c 0.998035 -1.49705 1.49705 -2.49509 1.99607 -3.99214 c 1.49705 -2.9941 2.49509 -6.48723 3.49312 -9.98035 c 0.499018 -2.9941 0.998035 -5.48919 0.998035 -8.4833 v -105.293 c 0 -5.98821 4.49116 -10.4794 10.4794 -10.4794 h 350.31 l 0 551.414 C 334.713 827.142 188.501 827.142 50.2726 787.221 Z M 590.21 573.641 c 0 1.99607 -0.998035 3.99214 -2.49509 5.48919 l -91.8192 83.8349 v -37.9253 l 62.8762 -55.89 c 2.49509 -1.99607 3.99214 -5.48919 3.99214 -8.4833 v -239.029 c 0 -6.48723 -4.99017 -11.4774 -11.4774 -11.4774 h -54.8919 v -27.446 h 67.3674 c 14.9705 0 26.9469 11.9764 26.9469 26.9469 V 573.641 Z" id="svg_3" transform=""/>
		<path class="st1" d="M 123.628 656.977 c -6.48723 0 -11.4774 4.99017 -11.4774 11.4774 v 54.8919 c 0 6.48723 4.99017 11.4774 11.4774 11.4774 s 11.4774 -4.99017 11.4774 -11.4774 v -54.8919 C 135.106 662.466 130.115 656.977 123.628 656.977 Z" id="svg_4" transform=""/>
		<path class="st1" d="M 123.628 403.975 c -6.48723 0 -11.4774 4.99017 -11.4774 11.4774 v 200.106 c 0 6.48723 4.99017 11.4774 11.4774 11.4774 s 11.4774 -4.99017 11.4774 -11.4774 v -200.106 C 135.106 408.966 130.115 403.975 123.628 403.975 Z" id="svg_5" transform=""/>
		<path class="st1" d="M 261.357 340.6 c -6.48723 0 -11.4774 4.99017 -11.4774 11.4774 v 371.768 c 0 6.48723 4.99017 11.4774 11.4774 11.4774 c 6.48723 0 11.4774 -4.99017 11.4774 -11.4774 v -371.768 C 273.334 345.59 267.844 340.6 261.357 340.6 Z" id="svg_6" transform=""/>
		<path class="st1" d="M 399.585 455.873 c -6.48723 0 -11.4774 4.99017 -11.4774 11.4774 v 255.996 c 0 6.48723 4.99017 11.4774 11.4774 11.4774 s 11.4774 -4.99017 11.4774 -11.4774 V 467.351 C 411.063 461.362 406.072 455.873 399.585 455.873 Z" id="svg_7" transform=""/>
		<path class="st1" d="M 399.585 340.6 c -6.48723 0 -11.4774 4.99017 -11.4774 11.4774 v 63.3752 c 0 6.48723 4.99017 11.4774 11.4774 11.4774 s 11.4774 -4.99017 11.4774 -11.4774 v -63.3752 C 411.063 345.59 406.072 340.6 399.585 340.6 Z" id="svg_8" transform=""/>
	</g>
	
	
	
	
	
	
	
	
	
	
	
</g></svg>